<?xml version="1.0" encoding="UTF-8"?>
<svg width="80px" height="80px" viewBox="0 0 80 80" version="1.1" xmlns="http://www.w3.org/2000/svg" xmlns:xlink="http://www.w3.org/1999/xlink">
    <title>User 06b</title>
    <defs>
        <linearGradient x1="50%" y1="0%" x2="50%" y2="100%" id="linearGradient-1">
            <stop stop-color="#806A6A" offset="0%"></stop>
            <stop stop-color="#665654" offset="100%"></stop>
        </linearGradient>
        <circle id="path-2" cx="40" cy="40" r="40"></circle>
        <linearGradient x1="50%" y1="0%" x2="50%" y2="100%" id="linearGradient-4">
            <stop stop-color="#1D0024" offset="0%"></stop>
            <stop stop-color="#100014" offset="100%"></stop>
        </linearGradient>
        <linearGradient x1="50%" y1="0%" x2="50%" y2="100%" id="linearGradient-5">
            <stop stop-color="#1D0024" offset="0%"></stop>
            <stop stop-color="#100014" offset="100%"></stop>
        </linearGradient>
        <linearGradient x1="50%" y1="0%" x2="50%" y2="100%" id="linearGradient-6">
            <stop stop-color="#F7B186" offset="0%"></stop>
            <stop stop-color="#FFC299" offset="100%"></stop>
        </linearGradient>
        <linearGradient x1="50%" y1="100%" x2="50%" y2="0%" id="linearGradient-7">
            <stop stop-color="#FCF2EB" offset="0%"></stop>
            <stop stop-color="#FFF9F5" offset="100%"></stop>
        </linearGradient>
        <linearGradient x1="50%" y1="0%" x2="50%" y2="100%" id="linearGradient-8">
            <stop stop-color="#1D0024" offset="0%"></stop>
            <stop stop-color="#100014" offset="100%"></stop>
        </linearGradient>
    </defs>
    <g id="Page-1" stroke="none" stroke-width="1" fill="none" fill-rule="evenodd">
        <g id="05" transform="translate(-156.000000, -304.000000)">
            <g id="Group-4" transform="translate(80.000000, 244.000000)">
                <g id="User-06b" transform="translate(76.000000, 60.000000)">
                    <mask id="mask-3" fill="white">
                        <use xlink:href="#path-2"></use>
                    </mask>
                    <use id="Mask" fill="url(#linearGradient-1)" fill-rule="nonzero" xlink:href="#path-2"></use>
                    <path d="M58.870948,13.1615479 C59.951703,8.48341993 54.8270073,4.89353793 49.5494364,7.35792205 C37.1207541,13.1615479 44.3327774,21.8494999 48.7908916,20.9138743 C53.2490059,19.9782487 57.790193,17.8396759 58.870948,13.1615479 Z" id="bun" fill="url(#linearGradient-4)" fill-rule="nonzero" mask="url(#mask-3)" transform="translate(50.819672, 13.770492) scale(-1, 1) translate(-50.819672, -13.770492) "></path>
                    <path d="M46.1086076,42.4268478 C40.4267859,45.164437 39.5979859,45.0177987 27.0664971,34.7343858 C8.15662344,19.2168331 26.008602,5.02556698 45.1829494,12.5854003 C65.9441394,21.7367775 58.9885668,36.221085 46.1086076,42.4268478 Z" id="hair" fill="url(#linearGradient-5)" fill-rule="nonzero" mask="url(#mask-3)"></path>
                    <path d="M46.1848834,53.8713745 C44.2218981,58.1757041 41.7235533,60.3278689 39.760568,60.3278689 C37.7975828,60.3278689 35.2992379,58.1757041 33.3362527,53.8713745 L33.3362527,48.4909626 C32.7540299,48.5081607 32.2632836,48.5081607 31.8640138,48.4909626 C25.6031681,48.2212837 23.5109549,38.0995663 24.4934902,27.974845 C25.2130308,20.5602023 31.4624941,30.7356032 41.6343267,23.6065574 C41.232807,31.4081547 44.5788045,30.6010929 46.0510435,29.6595208 C52.7430386,26.5657839 52.8768785,39.209752 46.2628013,38.2299367 C46.2654855,38.3645347 46.2395128,43.5783473 46.1848834,53.8713745 Z" id="Mask" fill="url(#linearGradient-6)" mask="url(#mask-3)"></path>
                    <path d="M33.442623,48.5351004 C35.8991718,48.3609377 38.9592811,47.0459588 42.6229508,44.5901639 C41.500351,48.2905749 38.4402417,50.4763673 33.442623,51.147541 L33.442623,48.5351004 Z" id="Path-2" fill="#FF9768" fill-rule="nonzero" mask="url(#mask-3)"></path>
                    <path d="M31.3719539,54.9544881 C31.6409223,53.1026393 32.0907495,52.0973751 32.7214354,51.9386956 C33.6674644,51.7006763 39.1964385,51.6720204 39.2014547,52.7387214 C39.2023754,52.934512 39.391733,55.0330123 40.0222823,55.0330123 C40.6528317,55.0330123 40.8148961,52.934398 40.8158163,52.7387214 C40.8208325,51.6720204 46.317762,51.7132065 47.2958355,51.9386956 C47.9478846,52.0890217 48.3963725,53.0954605 48.6412995,54.9580121 C58.2667814,59.4785884 63.5862528,62.7036915 64.5997135,64.6333215 C65.9069447,67.1222906 66.887368,72.9002544 67.5409836,81.9672131 L12.4590164,81.9672131 C13.112632,72.9002544 14.0930553,67.1222906 15.4002865,64.6333215 C16.4132907,62.7045608 21.7371799,59.478283 31.3719539,54.9544881 Z" id="body" fill="url(#linearGradient-7)" mask="url(#mask-3)"></path>
                    <path d="M40.3278689,72.568306 C40.8710998,72.568306 41.3114754,73.0576123 41.3114754,73.6612022 C41.3114754,74.2647921 40.8710998,74.7540984 40.3278689,74.7540984 C39.784638,74.7540984 39.3442623,74.2647921 39.3442623,73.6612022 C39.3442623,73.0576123 39.784638,72.568306 40.3278689,72.568306 Z M40.3278689,67.1038251 C40.8710998,67.1038251 41.3114754,67.5931314 41.3114754,68.1967213 C41.3114754,68.8003112 40.8710998,69.2896175 40.3278689,69.2896175 C39.784638,69.2896175 39.3442623,68.8003112 39.3442623,68.1967213 C39.3442623,67.5931314 39.784638,67.1038251 40.3278689,67.1038251 Z M40.3278689,61.6393443 C40.8710998,61.6393443 41.3114754,62.1286505 41.3114754,62.7322404 C41.3114754,63.3358303 40.8710998,63.8251366 40.3278689,63.8251366 C39.784638,63.8251366 39.3442623,63.3358303 39.3442623,62.7322404 C39.3442623,62.1286505 39.784638,61.6393443 40.3278689,61.6393443 Z" id="buttons" fill="#664F4D" mask="url(#mask-3)"></path>
                    <path d="M46.8908343,21.1962551 C51.1551986,31.9484574 48.7564937,37.190156 45.4249591,43.5070748 C43.203936,47.718354 43.4704587,51.7952307 46.2245274,55.7377049 C43.0262541,53.6768661 41.4271175,50.3616038 41.4271175,45.7919178 C41.4271175,38.9373889 46.2245274,34.6365079 42.2266858,28.9916017 C38.2288442,23.3466955 42.62647,10.4440528 46.8908343,21.1962551 Z" id="hair" fill="url(#linearGradient-8)" fill-rule="nonzero" mask="url(#mask-3)" transform="translate(44.918033, 36.393443) scale(-1, 1) translate(-44.918033, -36.393443) "></path>
                </g>
            </g>
        </g>
    </g>
</svg>