<?xml version="1.0" encoding="UTF-8"?>
<svg width="48px" height="48px" viewBox="0 0 48 48" version="1.1" xmlns="http://www.w3.org/2000/svg" xmlns:xlink="http://www.w3.org/1999/xlink">
    <title>user--experience-design</title>
    <g id="Page-1" stroke="none" stroke-width="1" fill="none" fill-rule="evenodd">
        <g id="19" transform="translate(-745.000000, -381.000000)">
            <g id="user--experience-design" transform="translate(745.000000, 381.000000)">
                <path d="M24,45.54 C20.0925,45.54 16.3605,44.472 13.209,42.453 L13.7925,41.5455 C16.77,43.452 20.2995,44.4585 24.0015,44.4585 C27.6075,44.4585 31.2345,43.4235 34.2135,41.5425 L34.791,42.456 C31.6395,44.445 27.8085,45.54 24,45.54 Z M42,39.54 C39.2205,39.54 36.96,37.278 36.96,34.5 C36.96,31.722 39.222,29.46 42,29.46 C44.778,29.46 47.04,31.722 47.04,34.5 C47.04,37.278 44.7795,39.54 42,39.54 Z M42,30.54 C39.816,30.54 38.04,32.316 38.04,34.5 C38.04,36.684 39.816,38.46 42,38.46 C44.184,38.46 45.96,36.684 45.96,34.5 C45.96,32.316 44.184,30.54 42,30.54 Z M12,39.54 L1.5,39.54 C1.3065,39.54 1.128,39.4365 1.032,39.2685 C0.936,39.1005 0.936,38.8935 1.0335,38.727 L6.2835,29.727 C6.477,29.3955 7.023,29.3955 7.2165,29.727 L12.4665,38.727 C12.564,38.8935 12.564,39.1005 12.468,39.2685 C12.372,39.4365 12.1935,39.54 12,39.54 Z M2.4405,38.46 L11.0595,38.46 L6.75,31.0725 L2.4405,38.46 Z M32.04,34.5 L30.96,34.5 L30.96,31.9755 C30.96,28.7355 28.761,25.9515 25.6125,25.206 C25.3875,25.1535 25.221,24.9615 25.2,24.732 C25.179,24.501 25.3065,24.282 25.518,24.1875 C26.8665,23.5875 27.7365,22.248 27.7365,20.775 C27.7365,18.7155 26.061,17.04 24.0015,17.04 C21.942,17.04 20.2665,18.7155 20.2665,20.775 C20.2665,22.248 21.138,23.5875 22.4865,24.1875 C22.698,24.282 22.8255,24.501 22.8045,24.7305 C22.7835,24.9615 22.617,25.1535 22.392,25.206 C19.242,25.953 17.043,28.7355 17.043,31.9755 L17.043,34.5 L15.963,34.5 L15.963,31.9755 C15.963,28.644 17.976,25.7325 20.9835,24.5235 C19.866,23.622 19.188,22.251 19.188,20.775 C19.188,18.12 21.348,15.96 24.003,15.96 C26.6595,15.96 28.8195,18.12 28.8195,20.775 C28.8195,22.251 28.1415,23.622 27.024,24.5235 C30.0315,25.7325 32.0445,28.6455 32.0445,31.9755 L32.0445,34.5 L32.04,34.5 Z M43.9815,27.0405 L42.903,26.958 C42.9405,26.4765 42.9585,25.989 42.9585,25.4985 C42.9585,18.4365 39.048,12.009 32.7495,8.727 L33.2475,7.7685 C39.906,11.2395 44.04,18.033 44.04,25.5 C44.04,26.0205 44.0205,26.532 43.9815,27.0405 Z M4.0185,27.0405 C3.9795,26.532 3.96,26.0205 3.96,25.5 C3.96,18 8.094,11.187 14.7495,7.7175 L15.249,8.676 C8.952,11.958 5.04,18.405 5.04,25.5 C5.04,25.9905 5.0595,26.4765 5.0955,26.9595 L4.0185,27.0405 Z M28.5,11.04 L19.5,11.04 C19.2015,11.04 18.96,10.7985 18.96,10.5 L18.96,1.5 C18.96,1.2015 19.2015,0.96 19.5,0.96 L28.5,0.96 C28.7985,0.96 29.04,1.2015 29.04,1.5 L29.04,10.5 C29.04,10.7985 28.7985,11.04 28.5,11.04 Z M20.04,9.96 L27.96,9.96 L27.96,2.04 L20.04,2.04 C20.04,2.04 20.04,9.96 20.04,9.96 Z" id="user--experience-design_1_" fill="#000000" fill-rule="nonzero"></path>
                <rect id="_Transparent_Rectangle" x="0" y="0" width="48" height="48"></rect>
            </g>
        </g>
    </g>
</svg>