<?xml version="1.0" encoding="UTF-8"?>
<svg width="48px" height="48px" viewBox="0 0 48 48" version="1.1" xmlns="http://www.w3.org/2000/svg" xmlns:xlink="http://www.w3.org/1999/xlink">
    <title>web--developer</title>
    <g id="Page-1" stroke="none" stroke-width="1" fill="none" fill-rule="evenodd">
        <g id="19" transform="translate(-599.000000, -381.000000)">
            <g id="Group-3" transform="translate(570.000000, 381.000000)">
                <g id="web--developer" transform="translate(29.000000, 0.000000)">
                    <path d="M29.235,4.5 C29.235,4.914 28.899,5.25 28.485,5.25 C28.071,5.25 27.735,4.914 27.735,4.5 C27.735,4.086 28.071,3.75 28.485,3.75 C28.899,3.75 29.235,4.086 29.235,4.5 Z M25.485,3.75 C25.071,3.75 24.735,4.086 24.735,4.5 C24.735,4.914 25.071,5.25 25.485,5.25 C25.899,5.25 26.235,4.914 26.235,4.5 C26.235,4.086 25.899,3.75 25.485,3.75 Z M22.485,3.75 C22.071,3.75 21.735,4.086 21.735,4.5 C21.735,4.914 22.071,5.25 22.485,5.25 C22.899,5.25 23.235,4.914 23.235,4.5 C23.235,4.086 22.899,3.75 22.485,3.75 Z M47.04,46.5 L45.96,46.5 C45.96,39.9885 41.5485,34.2585 35.2305,32.565 C35.0145,32.508 34.8585,32.3265 34.833,32.1045 C34.806,31.8855 34.92,31.671 35.115,31.5675 C37.632,30.2205 39.195,27.6135 39.195,24.7665 C39.195,20.5065 35.736,17.04 31.485,17.04 C27.2325,17.04 23.7735,20.5065 23.7735,24.7665 C23.7735,27.6135 25.3365,30.2205 27.8535,31.5675 C28.0485,31.671 28.161,31.8855 28.1355,32.1045 C28.11,32.325 27.954,32.508 27.738,32.565 C21.4395,34.2525 17.0415,39.9825 17.0415,46.5 L15.9615,46.5 C15.9615,39.897 20.163,34.044 26.316,31.875 C25.7775,31.4835 25.287,31.0335 24.8565,30.54 L1.5,30.54 C1.2015,30.54 0.96,30.2985 0.96,30 L0.96,1.5 C0.96,1.2015 1.2015,0.96 1.5,0.96 L31.5,0.96 C31.7985,0.96 32.04,1.2015 32.04,1.5 L32.04,15.978 C36.6285,16.266 40.2735,20.0985 40.2735,24.7665 C40.2735,27.606 38.91,30.234 36.651,31.875 C42.825,34.047 47.04,39.9 47.04,46.5 Z M2.04,29.46 L24.0495,29.46 C23.1765,28.0815 22.692,26.4615 22.692,24.7665 C22.692,20.0865 26.355,16.248 30.9585,15.9765 L30.9585,8.04 L2.04,8.04 L2.04,29.46 Z M2.04,6.96 L30.96,6.96 L30.96,2.04 L2.04,2.04 L2.04,6.96 Z M16.485,21.54 L4.485,21.54 L4.485,20.46 L16.485,20.46 L16.485,21.54 Z M16.485,17.04 L4.485,17.04 L4.485,15.96 L16.485,15.96 L16.485,17.04 Z M16.4835,12.54 L4.4835,12.54 L4.4835,11.46 L16.4835,11.46 L16.4835,12.54 Z" id="web--developer_1_" fill="#000000" fill-rule="nonzero"></path>
                    <rect id="_Transparent_Rectangle" x="0" y="0" width="48" height="48"></rect>
                </g>
            </g>
        </g>
    </g>
</svg>