<?xml version="1.0" encoding="UTF-8"?>
<svg width="48px" height="48px" viewBox="0 0 48 48" version="1.1" xmlns="http://www.w3.org/2000/svg" xmlns:xlink="http://www.w3.org/1999/xlink">
    <title>professional--marketplace</title>
    <g id="Page-1" stroke="none" stroke-width="1" fill="none" fill-rule="evenodd">
        <g id="19" transform="translate(-890.000000, -381.000000)">
            <g id="Group" transform="translate(862.000000, 381.000000)">
                <g id="professional--marketplace" transform="translate(28.000000, 0.000000)">
                    <path d="M45,47.04 L24,47.04 C23.7015,47.04 23.46,46.7985 23.46,46.5 L23.46,31.5 C23.46,31.2015 23.7015,30.96 24,30.96 L29.46,30.96 L29.46,27 C29.46,26.7015 29.7015,26.46 30,26.46 L39,26.46 C39.2985,26.46 39.54,26.7015 39.54,27 L39.54,30.96 L45,30.96 C45.2985,30.96 45.54,31.2015 45.54,31.5 L45.54,46.5 C45.54,46.7985 45.2985,47.04 45,47.04 Z M24.54,45.96 L44.46,45.96 L44.46,38.04 L38.04,38.04 L38.04,39 C38.04,39.2985 37.7985,39.54 37.5,39.54 L31.5,39.54 C31.2015,39.54 30.96,39.2985 30.96,39 L30.96,38.04 L24.54,38.04 C24.54,38.04 24.54,45.96 24.54,45.96 Z M32.04,38.46 L36.9585,38.46 L36.9585,36.54 L32.04,36.54 L32.04,38.46 Z M38.04,36.96 L44.4585,36.96 L44.4585,32.04 L24.54,32.04 L24.54,36.9585 L30.96,36.9585 L30.96,36 C30.96,35.7015 31.2015,35.46 31.5,35.46 L37.5,35.46 C37.7985,35.46 38.04,35.7015 38.04,36 C38.04,36 38.04,36.96 38.04,36.96 Z M30.54,30.96 L38.4585,30.96 L38.4585,27.54 L30.54,27.54 L30.54,30.96 Z M12.54,46.5 L11.46,46.5 L11.46,35.25 C11.46,29.862 14.8455,25.173 19.839,23.4315 C17.85,22.071 16.62,19.8 16.62,17.3415 C16.62,14.3955 18.3555,11.8455 20.859,10.6635 C21.153,9.9255 21.3015,9.1455 21.3015,8.3415 C21.3015,4.8675 18.4755,2.04 15,2.04 C11.5245,2.04 8.6985,4.866 8.6985,8.3415 C8.6985,10.824 10.1685,13.0845 12.4425,14.0955 C12.6555,14.19 12.783,14.409 12.7605,14.64 C12.7395,14.8695 12.573,15.0615 12.348,15.114 C7.161,16.344 3.54,20.9235 3.54,26.25 L3.54,37.5 L2.46,37.5 L2.46,26.25 C2.46,20.862 5.8455,16.173 10.8375,14.4315 C8.8485,13.071 7.62,10.8 7.62,8.3415 C7.62,4.272 10.9305,0.9615 15,0.9615 C19.0695,0.9615 22.38,4.272 22.38,8.3415 C22.38,8.9745 22.302,9.594 22.1445,10.197 C23.3295,9.8895 24.669,9.8895 25.854,10.197 C25.698,9.5955 25.6185,8.9745 25.6185,8.3415 C25.6185,4.272 28.9305,0.9615 33,0.9615 C37.0695,0.9615 40.3815,4.272 40.3815,8.3415 C40.3815,10.8 39.1515,13.0725 37.1625,14.433 C42.156,16.176 45.5415,20.8695 45.5415,26.2635 L45.5415,27 L44.46,27 L44.46,26.262 C44.46,20.928 40.839,16.344 35.6535,15.114 C35.4285,15.06 35.262,14.8695 35.241,14.64 C35.2185,14.409 35.3475,14.19 35.559,14.097 C37.8315,13.083 39.3,10.824 39.3,8.3415 C39.3,4.8675 36.474,2.04 33,2.04 C29.526,2.04 26.7,4.866 26.7,8.3415 C26.7,9.1455 26.8485,9.9255 27.1425,10.6635 C29.646,11.847 31.3815,14.3955 31.3815,17.3415 C31.3815,18.747 30.984,20.1135 30.2325,21.291 C29.4495,22.5225 28.329,23.4885 26.997,24.0825 L26.5575,23.097 C27.6975,22.59 28.6515,21.765 29.322,20.712 C29.9625,19.7055 30.3,18.5415 30.3,17.3415 C30.3,13.8675 27.474,11.04 24,11.04 C20.526,11.04 17.7,13.866 17.7,17.3415 C17.7,19.8255 19.17,22.0845 21.444,23.0955 C21.6555,23.19 21.783,23.409 21.762,23.64 C21.741,23.8695 21.5745,24.0615 21.3495,24.114 C16.1625,25.344 12.54,29.922 12.54,35.25 C12.54,35.25 12.54,46.5 12.54,46.5 Z" id="professional--marketplace_1_" fill="#000000" fill-rule="nonzero"></path>
                    <rect id="_Transparent_Rectangle" x="0" y="0" width="48" height="48"></rect>
                </g>
            </g>
        </g>
    </g>
</svg>