<?xml version="1.0" encoding="UTF-8"?>
<svg width="64px" height="64px" viewBox="0 0 64 64" version="1.1" xmlns="http://www.w3.org/2000/svg" xmlns:xlink="http://www.w3.org/1999/xlink">
    <title>rank</title>
    <g id="Page-1" stroke="none" stroke-width="1" fill="none" fill-rule="evenodd">
        <g id="07" transform="translate(-496.000000, -425.000000)">
            <g id="rank" transform="translate(496.000000, 425.000000)">
                <path d="M62,62.72 L26,62.72 L26,61.28 L62,61.28 L62,62.72 Z M8,59.72 C5.95,59.72 4.28,58.05 4.28,56 C4.28,54.196 5.572,52.686 7.28,52.35 L7.28,37.17 C4.742,36.818 2.78,34.634 2.78,32 C2.78,29.366 4.74,27.182 7.28,26.83 L7.28,14.682 C3.912,14.322 1.28,11.462 1.28,8 C1.28,4.294 4.294,1.28 8,1.28 C11.706,1.28 14.72,4.294 14.72,8 C14.72,11.462 12.088,14.322 8.72,14.682 L8.72,26.83 C11.252,27.19 13.22,29.392 13.22,32 C13.22,34.634 11.26,36.818 8.72,37.17 L8.72,52.352 C10.424,52.694 11.72,54.214 11.72,56 C11.72,58.05 10.05,59.72 8,59.72 Z M8,53.72 C6.744,53.72 5.72,54.742 5.72,56 C5.72,57.258 6.744,58.28 8,58.28 C9.256,58.28 10.28,57.258 10.28,56 C10.28,54.774 9.28,53.752 8.052,53.72 L8,53.72 Z M8,28.22 C5.916,28.22 4.22,29.916 4.22,32 C4.22,34.084 5.916,35.78 8,35.78 C10.084,35.78 11.78,34.084 11.78,32 C11.78,29.964 10.122,28.27 8.08,28.22 L8,28.22 Z M8,2.72 C5.088,2.72 2.72,5.088 2.72,8 C2.72,10.912 5.088,13.28 8,13.28 C10.912,13.28 13.28,10.912 13.28,8 C13.28,5.088 10.912,2.72 8,2.72 Z M62,56.72 L26,56.72 L26,55.28 L62,55.28 L62,56.72 Z M62,50.72 L26,50.72 L26,49.28 L62,49.28 L62,50.72 Z M62,38.72 L26,38.72 L26,37.28 L62,37.28 L62,38.72 Z M62,32.72 L26,32.72 L26,31.28 L62,31.28 L62,32.72 Z M62,26.72 L26,26.72 L26,25.28 L62,25.28 L62,26.72 Z M62,14.72 L26,14.72 L26,13.28 L62,13.28 L62,14.72 Z M62,8.72 L26,8.72 L26,7.28 L62,7.28 L62,8.72 Z M62,2.72 L26,2.72 L26,1.28 L62,1.28 L62,2.72 Z" id="rank_1_" fill="#1192E8" fill-rule="nonzero"></path>
                <rect id="_Transparent_Rectangle" x="0" y="0" width="64" height="64"></rect>
            </g>
        </g>
    </g>
</svg>