<?xml version="1.0" encoding="UTF-8"?>
<svg width="64px" height="64px" viewBox="0 0 64 64" version="1.1" xmlns="http://www.w3.org/2000/svg" xmlns:xlink="http://www.w3.org/1999/xlink">
    <title>user--analytics</title>
    <g id="Page-1" stroke="none" stroke-width="1" fill="none" fill-rule="evenodd">
        <g id="07" transform="translate(-810.000000, -425.000000)">
            <g id="user--analytics" transform="translate(810.000000, 425.000000)">
                <path d="M62,58.72 L20,58.72 C19.602,58.72 19.28,58.398 19.28,58 L19.28,48.708 C9.29,48.328 1.28,40.082 1.28,30 C1.28,19.918 9.29,11.674 19.28,11.294 L19.28,6 C19.28,5.602 19.602,5.28 20,5.28 L62,5.28 C62.398,5.28 62.72,5.602 62.72,6 L62.72,58 C62.72,58.398 62.398,58.72 62,58.72 Z M56.72,57.28 L61.278,57.28 L61.278,6.72 L20.72,6.72 L20.72,11.294 C30.71,11.674 38.72,19.918 38.72,30 C38.72,40.08 30.71,48.326 20.72,48.708 L20.72,57.28 L35.28,57.28 L35.28,46 C35.28,45.602 35.602,45.28 36,45.28 L44,45.28 C44.398,45.28 44.72,45.602 44.72,46 L44.72,57.28 L47.278,57.28 L47.278,32 C47.278,31.602 47.6,31.28 47.998,31.28 L55.998,31.28 C56.396,31.28 56.718,31.602 56.718,32 L56.72,57.28 L56.72,57.28 Z M48.72,57.28 L55.278,57.28 L55.278,32.72 L48.72,32.72 L48.72,57.28 Z M36.72,57.28 L43.278,57.28 L43.278,46.72 L36.72,46.72 L36.72,57.28 Z M7.498,41.918 C10.648,45.218 15.088,47.28 20,47.28 C24.912,47.28 29.354,45.22 32.502,41.916 C30.42,38.352 26.774,35.782 22.654,35.002 C22.334,34.942 22.096,34.676 22.07,34.352 C22.044,34.028 22.238,33.728 22.544,33.618 C25.6,32.524 27.654,29.626 27.654,26.41 C27.654,22.17 24.204,18.722 19.966,18.722 C15.728,18.722 12.278,22.172 12.278,26.41 C12.278,29.628 14.33,32.526 17.386,33.618 C17.692,33.728 17.886,34.028 17.86,34.352 C17.834,34.676 17.596,34.942 17.276,35.002 C13.14,35.786 9.602,38.292 7.498,41.918 Z M24.854,34.082 C28.42,35.236 31.52,37.628 33.496,40.78 C35.862,37.822 37.278,34.072 37.278,30 C37.278,20.472 29.528,12.72 19.998,12.72 C10.468,12.72 2.72,20.472 2.72,30 C2.72,34.072 4.136,37.82 6.504,40.78 C8.492,37.582 11.518,35.226 15.076,34.08 C12.482,32.43 10.84,29.548 10.84,26.408 C10.84,21.374 14.934,17.28 19.968,17.28 C25.002,17.28 29.096,21.374 29.096,26.408 C29.094,29.548 27.45,32.432 24.854,34.082 Z M56,26.72 L44,26.72 L44,25.28 L56,25.28 L56,26.72 Z M56,20.72 L44,20.72 L44,19.28 L56,19.28 L56,20.72 Z M56,14.72 L44,14.72 L44,13.28 L56,13.28 L56,14.72 Z" id="user--analytics_1_" fill="#1192E8" fill-rule="nonzero"></path>
                <rect id="_Transparent_Rectangle" x="0" y="0" width="64" height="64"></rect>
            </g>
        </g>
    </g>
</svg>