<?xml version="1.0" encoding="UTF-8"?>
<svg width="64px" height="64px" viewBox="0 0 64 64" version="1.1" xmlns="http://www.w3.org/2000/svg" xmlns:xlink="http://www.w3.org/1999/xlink">
    <title>build(3)</title>
    <g id="Page-1" stroke="none" stroke-width="1" fill="none" fill-rule="evenodd">
        <g id="07" transform="translate(-182.000000, -425.000000)">
            <g id="build(3)" transform="translate(182.000000, 425.000000)">
                <path d="M18.004,62.72 C13.196,62.72 9.284,58.808 9.284,54 C9.284,49.192 13.196,45.28 18.004,45.28 C19.466,45.28 20.844,45.644 22.056,46.28 L26.306,39.604 L27.52,40.378 L23.27,47.056 C25.366,48.65 26.724,51.17 26.724,54.002 C26.724,58.808 22.814,62.72 18.004,62.72 Z M18.004,46.72 C13.99,46.72 10.724,49.986 10.724,54 C10.724,58.014 13.99,61.28 18.004,61.28 C22.018,61.28 25.284,58.014 25.284,54 C25.284,49.986 22.02,46.72 18.004,46.72 Z M32.004,62.71 C30.282,62.71 28.56,62.568 26.89,62.286 L27.128,60.864 C28.72,61.134 30.362,61.268 32.004,61.268 C41.3,61.268 49.838,57 55.428,49.56 L56.58,50.424 C50.716,58.232 41.758,62.71 32.004,62.71 Z M62,49.72 C61.876,49.72 61.748,49.686 61.636,49.62 L49.646,42.61 C49.426,42.482 49.288,42.244 49.288,41.988 C49.288,41.732 49.424,41.496 49.646,41.366 L61.636,34.376 C61.862,34.246 62.134,34.246 62.358,34.372 C62.58,34.5 62.72,34.74 62.72,34.996 L62.72,48.996 C62.72,49.254 62.582,49.492 62.356,49.62 C62.248,49.688 62.124,49.72 62,49.72 Z M51.438,41.99 L61.28,47.744 L61.28,36.254 L51.438,41.99 Z M6.69,49.398 C5.582,47.792 4.622,46.068 3.84,44.278 L5.16,43.7 C5.906,45.408 6.818,47.05 7.874,48.58 L6.69,49.398 Z M6.252,40.954 C6.068,40.954 5.884,40.884 5.744,40.744 L1.492,36.512 C1.356,36.376 1.28,36.192 1.28,36 C1.28,35.81 1.356,35.626 1.49,35.49 L5.742,31.24 C6.024,30.958 6.478,30.958 6.76,31.24 L11.004,35.482 C11.14,35.616 11.214,35.8 11.214,35.992 C11.214,36.184 11.14,36.366 11.004,36.5 L6.76,40.742 C6.62,40.882 6.436,40.954 6.252,40.954 Z M3.02,35.998 L6.252,39.214 L9.478,35.99 L6.254,32.766 L3.02,35.998 Z M17.522,40.352 C16.058,37.82 15.284,34.93 15.284,31.99 C15.284,24.352 20.444,17.692 27.832,15.794 L28.19,17.188 C21.44,18.922 16.724,25.008 16.724,31.988 C16.724,34.674 17.432,37.316 18.768,39.626 L17.522,40.352 Z M32.004,38.71 C28.298,38.71 25.284,35.694 25.284,31.99 C25.284,28.526 27.918,25.666 31.288,25.308 L31.288,13.99 L32.728,13.99 L32.728,25.308 C36.094,25.672 38.724,28.528 38.724,31.99 C38.724,35.696 35.708,38.71 32.004,38.71 Z M32.004,26.71 C29.092,26.71 26.724,29.08 26.724,31.99 C26.724,34.902 29.094,37.27 32.004,37.27 C34.914,37.27 37.2820013,34.902 37.2820013,31.99 C37.284,29.08 34.916,26.71 32.004,26.71 Z M61.282,30.038 C60.418,16.918 50.79,5.924 37.868,3.298 L38.154,1.886 C51.712,4.64 61.814,16.178 62.72,29.944 L61.282,30.038 Z M48.01,28.71 C47.886,28.71 47.762,28.678 47.65,28.614 L42.452,25.614 C42.23,25.486 42.09,25.246 42.09,24.99 L42.09,18.99 C42.09,18.734 42.228,18.494 42.452,18.366 L47.65,15.366 C47.872,15.24 48.146,15.238 48.368,15.366 L53.564,18.366 C53.786,18.494 53.926,18.732 53.926,18.99 L53.926,24.99 C53.926,25.246 53.788,25.486 53.564,25.614 L48.368,28.614 C48.258,28.678 48.134,28.71 48.01,28.71 Z M43.534,24.574 L48.01,27.158 L52.484,24.574 L52.484,19.406 L48.01,16.822 L43.534,19.406 C43.534,19.406 43.534,24.574 43.534,24.574 Z M31.996,8.72 C29.948,8.72 28.282,7.048 28.282,4.99 C28.282,2.944 29.948,1.28 31.996,1.28 C34.05,1.28 35.722,2.944 35.722,4.99 C35.72,7.046 34.048,8.72 31.996,8.72 Z M31.996,2.72 C30.742,2.72 29.72,3.738 29.72,4.99 C29.72,6.252 30.74,7.28 31.996,7.28 C33.256,7.28 34.28,6.252 34.28,4.99 C34.28,3.738 33.254,2.72 31.996,2.72 Z M2.07,30.696 C2.054,30.696 2.036,30.696 2.02,30.694 C1.624,30.664 1.326,30.34 1.354,29.944 C1.354,29.944 1.356,29.902 1.356,29.9 C1.388,29.504 1.726,29.194 2.13,29.238 C2.526,29.268 2.822,29.614 2.792,30.012 C2.762,30.388 2.444,30.696 2.07,30.696 Z M5.254,19.084 C5.146,19.084 5.038,19.06 4.936,19.006 C4.586,18.826 4.438,18.416 4.616,18.064 C4.618,18.058 4.64,18.016 4.644,18.008 C4.832,17.658 5.266,17.528 5.62,17.716 C5.97,17.904 6.1,18.34 5.912,18.692 C5.78,18.938 5.52,19.084 5.254,19.084 Z M9.852,12.462 C9.676,12.462 9.5,12.4 9.364,12.272 C9.08,12.004 9.05,11.572 9.31,11.282 C9.32,11.274 9.356,11.236 9.366,11.226 C9.648,10.944 10.102,10.944 10.384,11.226 C10.666,11.508 10.666,11.962 10.384,12.244 C10.24,12.388 10.044,12.462 9.852,12.462 Z M7.334,15.606 C7.158,15.606 6.982,15.544 6.846,15.416 C6.562,15.148 6.532,14.716 6.792,14.426 C6.8,14.416 6.836,14.378 6.846,14.37 C7.128,14.088 7.582,14.088 7.864,14.37 C8.146,14.652 8.146,15.106 7.864,15.388 C7.722,15.532 7.526,15.606 7.334,15.606 Z M3.662,22.802 C3.486,22.802 3.31,22.74 3.174,22.612 C2.89,22.344 2.86,21.912 3.12,21.622 C3.128,21.612 3.164,21.574 3.174,21.566 C3.456,21.284 3.91,21.284 4.192,21.566 C4.474,21.848 4.474,22.302 4.192,22.584 C4.048,22.726 3.854,22.802 3.662,22.802 Z M2.592,26.696 C2.416,26.696 2.24,26.634 2.104,26.506 C1.82,26.238 1.79,25.806 2.05,25.516 C2.058,25.506 2.094,25.468 2.104,25.46 C2.386,25.178 2.84,25.178 3.122,25.46 C3.404,25.742 3.404,26.196 3.122,26.478 C2.98,26.622 2.784,26.696 2.592,26.696 Z M32.82,48.7 C32.644,48.7 32.468,48.638 32.332,48.51 C32.048,48.242 32.018,47.81 32.278,47.52 C32.286,47.51 32.322,47.472 32.332,47.464 C32.614,47.182 33.068,47.182 33.35,47.464 C33.632,47.746 33.632,48.2 33.35,48.482 C33.206,48.626 33.012,48.7 32.82,48.7 Z M36.834,47.966 C36.658,47.966 36.482,47.904 36.346,47.776 C36.062,47.508 36.032,47.076 36.292,46.786 C36.3,46.776 36.336,46.738 36.346,46.73 C36.628,46.448 37.082,46.448 37.364,46.73 C37.646,47.012 37.646,47.466 37.364,47.748 C37.22,47.892 37.026,47.966 36.834,47.966 Z M43.594,43.766 C43.418,43.766 43.242,43.704 43.106,43.576 C42.822,43.308 42.792,42.876 43.052,42.586 C43.06,42.576 43.096,42.538 43.106,42.53 C43.388,42.248 43.842,42.248 44.124,42.53 C44.406,42.812 44.406,43.266 44.124,43.548 C43.98,43.692 43.786,43.766 43.594,43.766 Z M47.484,36.772 C47.308,36.772 47.132,36.71 46.996,36.582 C46.712,36.314 46.682,35.882 46.942,35.592 C46.95,35.582 46.986,35.544 46.996,35.536 C47.278,35.254 47.732,35.254 48.014,35.536 C48.296,35.818 48.296,36.272 48.014,36.554 C47.872,36.698 47.678,36.772 47.484,36.772 Z M12.75,9.71 C12.552,9.71 12.356,9.626 12.212,9.464 C11.946,9.17 11.984,8.704 12.28,8.438 C12.298,8.422 12.348,8.38 12.368,8.366 C12.69,8.132 13.14,8.204 13.374,8.524 C13.608,8.846 13.538,9.296 13.216,9.53 C13.082,9.652 12.916,9.71 12.75,9.71 Z M19.6,5.384 C19.32,5.384 19.05,5.228 18.932,4.962 C18.778,4.61 18.908,4.206 19.25,4.036 C19.27,4.026 19.328,3.998 19.35,3.992 C19.722,3.85 20.138,4.034 20.28,4.406 C20.422,4.778 20.238,5.194 19.866,5.336 C19.782,5.368 19.69,5.384 19.6,5.384 Z M16.056,7.286 C15.776,7.286 15.506,7.13 15.388,6.864 C15.232,6.512 15.362,6.108 15.706,5.938 C15.726,5.928 15.784,5.9 15.806,5.894 C16.178,5.752 16.594,5.936 16.736,6.308 C16.878,6.68 16.694,7.096 16.322,7.238 C16.236,7.27 16.146,7.286 16.056,7.286 Z M23.38,3.966 C23.07,3.966 22.774,3.772 22.678,3.464 C22.56,3.084 22.756,2.686 23.136,2.57 L23.174,2.558 C23.548,2.442 23.956,2.654 24.074,3.034 C24.19,3.414 23.978,3.818 23.598,3.934 C23.526,3.956 23.454,3.966 23.38,3.966 Z M28.888,48.408 C28.85,48.408 28.814,48.404 28.776,48.398 C28.746,48.394 28.678,48.38 28.648,48.37 C28.266,48.262 28.044,47.862 28.154,47.482 C28.262,47.1 28.658,46.874 29.044,46.988 C29.436,47.046 29.682,47.41 29.622,47.802 C29.566,48.158 29.24,48.408 28.888,48.408 Z M40.486,46.282 C40.242,46.282 40.004,46.158 39.868,45.932 C39.662,45.59 39.774,45.148 40.114,44.944 C40.446,44.74 40.9,44.834 41.11,45.164 C41.318,45.496 41.242,45.922 40.916,46.138 C40.908,46.144 40.866,46.172 40.856,46.178 C40.74,46.248 40.614,46.282 40.486,46.282 Z M45.99,40.486 C45.852,40.486 45.712,40.446 45.592,40.364 C45.26,40.144 45.17,39.696 45.39,39.366 C45.568,39.006 45.996,38.892 46.344,39.064 C46.7,39.244 46.832,39.696 46.654,40.052 C46.64,40.08 46.606,40.14 46.59,40.164 C46.452,40.374 46.222,40.486 45.99,40.486 Z M48.004,32.75 C47.606,32.75 47.284,32.428 47.284,32.03 C47.284,31.632 47.606,31.29 48.004,31.29 C48.402,31.29 48.724,31.592 48.724,31.99 L48.724,32.03 C48.724,32.428 48.402,32.75 48.004,32.75 Z" id="build_1_" fill="#1192E8" fill-rule="nonzero"></path>
                <rect id="_Transparent_Rectangle" x="0" y="0" width="64" height="64"></rect>
            </g>
        </g>
    </g>
</svg>